<?xml version="1.0" encoding="utf-8"?>
<!-- Generator: Adobe Illustrator 24.0.1, SVG Export Plug-In . SVG Version: 6.00 Build 0)  -->
<svg version="1.1" id="Layer_1" xmlns="http://www.w3.org/2000/svg" xmlns:xlink="http://www.w3.org/1999/xlink" x="0px" y="0px"
	 viewBox="0 0 509 198" style="enable-background:new 0 0 509 198;" xml:space="preserve">
<g>
	<path d="M330.31,155.48c-24.33,0-42.66-12.64-42.66-36.34V47.1c0-3,1.74-4.74,4.74-4.74h22.12c3,0,4.74,1.74,4.74,4.74v65.41
		c0,8.37,3.95,12.32,11.06,12.32c7.11,0,11.06-3.95,11.06-12.32V47.1c0-3,1.74-4.74,4.74-4.74h12.56l14.3,24.05v52.74
		C372.97,142.84,354.64,155.48,330.31,155.48z M462.76,155.48h-25.21c-2.59,0-4.53-1.13-5.82-3.39l-13.49-23.14l-13.49,23.14
		c-1.29,2.26-3.23,3.39-5.82,3.39h-25.21c-3.88,0-5.33-2.59-3.39-5.82l30-51.44l-29.19-50.05c-1.94-3.23-0.49-5.82,3.39-5.82h25.21
		c2.59,0,4.53,1.13,5.82,3.39l12.69,21.75l12.69-21.75c1.29-2.26,3.23-3.39,5.82-3.39h25.21c3.88,0,5.33,2.59,3.39,5.82
		l-29.19,50.05l30,51.44C468.09,152.89,466.63,155.48,462.76,155.48z"/>
	<g>
		<path d="M133.41,155.48h-24.86c-2.58,0-4.36-0.81-5.81-3.07l-21.67-32.45h-5.93v30.67c0,3.07-1.78,4.84-4.84,4.84h-22.6
			c-3.07,0-4.84-1.78-4.84-4.84V47.32c0-3.07,1.78-4.84,4.84-4.84h27.44h11.3c24.38,0,42.78,15.34,42.78,39.71
			c0,13.92-6.88,24.94-17.8,31.4l25.06,36.08C138.73,153.06,137.28,155.48,133.41,155.48z M75.13,72.18v19.7h11.3
			c6.46,0.16,10.49-3.07,10.49-9.69c0-6.62-4.04-10.01-10.49-10.01H75.13z"/>
		<path d="M137.56,122.6c-0.15-3.09,1.7-4.79,4.63-4.79h21.92c2.78,0,3.86,1.39,4.94,4.17c1.54,3.4,5.4,4.79,10.96,4.79
			c5.87,0,9.11-2.47,9.11-6.18c0-4.63-7.56-6.48-16.83-9.11c-14.67-4.48-33.81-13.43-33.81-35.04c0-22.39,16.98-33.96,38.9-33.96
			c20.38,0,37.51,9.42,39.68,31.34c0.15,3.09-1.7,4.79-4.63,4.79h-22.08c-2.62,0-3.55-1.39-4.94-3.86
			c-1.24-2.16-3.71-3.55-8.03-3.55c-5.25,0-8.03,2.16-8.03,5.4c0,5.56,8.8,7.26,19.14,10.34c14.36,4.32,31.49,13.59,31.49,34.58
			c0,22.39-17.29,33.96-40.29,33.96C157.47,155.48,139.72,145.91,137.56,122.6z"/>
	</g>
	<polygon id="_x31__1_" points="267.12,95.4 258.35,95.4 266.42,70.57 240.04,102.85 248.81,102.85 240.74,127.67 	"/>
	<path d="M-0.11-0.19v198.12h509.46V-0.19H-0.11z M495.2,185.55H14.04V12.19H495.2V185.55z"/>
</g>
</svg>
